<?xml version="1.0" encoding="UTF-8"?>
<svg width="64" height="64" viewBox="0 0 64 64" fill="none" xmlns="http://www.w3.org/2000/svg">
  <defs>
    <linearGradient id="bg" x1="8" y1="6" x2="56" y2="58" gradientUnits="userSpaceOnUse">
      <stop stop-color="#A8D4FF"/>
      <stop offset="1" stop-color="#D6E4FC"/>
    </linearGradient>
    <clipPath id="r">
      <rect x="4" y="4" width="56" height="56" rx="14"/>
    </clipPath>
  </defs>

  <g clip-path="url(#r)">
    <rect x="4" y="4" width="56" height="56" rx="14" fill="url(#bg)"/>

    <!-- Woof logo from Vector.svg, centered and scaled for a square favicon -->
    <g transform="translate(32 35) scale(0.55) translate(-47.5 -39)">
      <path fill-rule="evenodd" clip-rule="evenodd" d="M81.2472 65.0553L52.9389 5.17051C51.8037 2.76912 53.549 0 56.1976 0H82.9556C89.5955 0 94.9782 5.40142 94.9782 12.0644V61.9529C94.9782 69.6729 84.5444 72.0303 81.2472 65.0553Z" fill="#1E1C2D"/>
      <path fill-rule="evenodd" clip-rule="evenodd" d="M38.6023 73.5095C42.9221 79.4968 51.8114 79.4968 56.1312 73.5095L65.465 60.5725C67.1916 58.1794 65.4877 54.8307 62.5435 54.8307H32.19C29.2458 54.8307 27.5419 58.1794 29.2685 60.5725L38.6023 73.5095Z" fill="#1E1C2D"/>
      <path fill-rule="evenodd" clip-rule="evenodd" d="M13.731 65.054C10.4339 72.0292 0 69.6718 0 61.9517V12.0644C0 5.40142 5.38268 0 12.0226 0H38.7789C41.4275 0 43.1728 2.76908 42.0376 5.17046L13.731 65.054Z" fill="#1E1C2D"/>
    </g>
  </g>
</svg>

